<svg fill="rgb(174, 189, 202, 0.9)" height="24" viewBox="0 -960 960 960" width="24" xmlns="http://www.w3.org/2000/svg">
  <defs></defs>
  <path d="M 480 -92.597 C 432.821 -92.597 388.616 -101.52 347.385 -119.367 C 306.154 -137.213 270.206 -161.469 239.539 -192.135 C 208.873 -222.801 184.617 -258.75 166.771 -299.981 C 148.924 -341.211 140.001 -385.416 140.001 -432.596 C 140.001 -441.108 142.873 -448.236 148.617 -453.98 C 154.36 -459.723 161.488 -462.595 170.001 -462.595 C 178.514 -462.595 185.642 -459.723 191.385 -453.98 C 197.128 -448.236 200 -441.108 200 -432.596 C 200 -354.596 227.167 -288.429 281.5 -234.096 C 335.833 -179.762 402 -152.596 480 -152.596 C 558 -152.596 624.167 -179.762 678.5 -234.096 C 732.833 -288.429 760 -354.596 760 -432.596 C 760 -510.596 732.833 -576.762 678.5 -631.096 C 624.167 -685.429 558 -712.596 480 -712.596 L 469.384 -712.596 L 511.846 -670.134 C 517.795 -664.185 520.731 -657.224 520.654 -649.25 C 520.577 -641.276 517.641 -634.186 511.846 -627.981 C 505.641 -621.776 498.513 -618.571 490.462 -618.366 C 482.411 -618.16 475.283 -621.16 469.078 -627.366 L 379.156 -717.672 C 371.925 -724.902 368.31 -733.338 368.31 -742.98 C 368.31 -752.62 371.925 -761.056 379.156 -768.287 L 469.848 -858.594 C 475.796 -864.542 482.86 -867.478 491.039 -867.402 C 499.218 -867.324 506.411 -864.183 512.616 -857.979 C 518.411 -851.773 521.411 -844.748 521.616 -836.902 C 521.821 -829.056 518.821 -822.03 512.616 -815.826 L 469.384 -772.595 L 480 -772.595 C 527.179 -772.595 571.384 -763.671 612.615 -745.825 C 653.846 -727.979 689.794 -703.723 720.461 -673.057 C 751.127 -642.39 775.383 -606.441 793.229 -565.211 C 811.076 -523.98 819.999 -479.775 819.999 -432.596 C 819.999 -385.416 811.076 -341.211 793.229 -299.981 C 775.383 -258.75 751.127 -222.801 720.461 -192.135 C 689.794 -161.469 653.846 -137.213 612.615 -119.367 C 571.384 -101.52 527.179 -92.597 480 -92.597 L 480 -92.597 Z"></path>
</svg>